# xmcd
#
# Track frame offsets:
#	150
#	16887
#	30864
#	48244
#	73089
#	91533
#	111362
#	124065
#	142831
#	162665
#	181940
#	201098
#	225356
#	243333
#	258745
#	276129
#	293437
#	309573
#
# Disc length: 4333 seconds
#
# Revision: 1
# Processed by: cddbd v1.5.2PL0 Copyright (c) Steve Scherf et al.
# Submitted via: audiograbber 1.83.01
#
DISCID=ec10eb12
DTITLE=Various Artist - Be My Valentine [CD 1]
DYEAR=2006
DGENRE=Ballad
TTITLE0=Blue - Breathe Easy
TTITLE1=Atomic Kitten - Whole Again
TTITLE2=Martine McCutcheon - Perfect Moment
TTITLE3=Spandau Ballet - True
TTITLE4=Kate Winslet - What If
TTITLE5=Bryan Ferry - Slave To Love
TTITLE6=Katrina and The Waves - Walking On Sunshine
TTITLE7=Pat Banatar - Love Is A Battlefield
TTITLE8=Cutting Crew - (I Just) Died In Your Arms Tonight
TTITLE9=Belinda Carlisle - (We Want) The Same Thing
TTITLE10=Wendy Moten - Come In Out Of The Rain
TTITLE11=Meat Loaf - I'd Do Anything For You (But I Won't Do That)
TTITLE12=Duran Duran - Come Undone
TTITLE13=Mike And The Mechanics - Over My Shoulder
TTITLE14=Philip Oakey and George Moroder - Together In Electric  Dreams
TTITLE15=Blondie - The Tide Is High
TTITLE16=Culture Club - I Just Wanna Be Loved
TTITLE17=UB40 - (I Can't Help) Falling In Love
EXTD=
EXTT0=
EXTT1=
EXTT2=
EXTT3=
EXTT4=
EXTT5=
EXTT6=
EXTT7=
EXTT8=
EXTT9=
EXTT10=
EXTT11=
EXTT12=
EXTT13=
EXTT14=
EXTT15=
EXTT16=
EXTT17=
PLAYORDER=
